HIERARCHY
ROOT root
{
	OFFSET	0	13.1	24.9
	CHANNELS 6  Xposition Yposition Zposition Xrotation Yrotation Zrotation
	JOINT spine_1
	{
		OFFSET	0	9.99999	0
		CHANNELS 3  Xrotation Yrotation Zrotation
		JOINT spine_2
		{
			OFFSET	0	112	-10
			CHANNELS 3  Xrotation Yrotation Zrotation
			JOINT spine_3
			{
				OFFSET	0	206.5	19.3
				CHANNELS 3  Xrotation Yrotation Zrotation
				JOINT spine_4
				{
					OFFSET	0	110.4	14.6
					CHANNELS 3  Xrotation Yrotation Zrotation
					JOINT neck_1
					{
						OFFSET	0	71.8	-50.3
						CHANNELS 3  Xrotation Yrotation Zrotation
						JOINT neck_2
						{
							OFFSET	0	86.2	-25.8
							CHANNELS 3  Xrotation Yrotation Zrotation
							JOINT head_ee
							{
								OFFSET	0	179.8	-8.7
								CHANNELS 3  Xrotation Yrotation Zrotation
								End Site
								{
									OFFSET	1	0	0
								}
							}
						}
					}
					JOINT left_clavicle
					{
						OFFSET	-43.2	22.4	-70.8
						CHANNELS 3  Xrotation Yrotation Zrotation
						JOINT left_shoulder
						{
							OFFSET	-93.9	-5.79999	48.7
							CHANNELS 3  Xrotation Yrotation Zrotation
							JOINT left_elbow
							{
								OFFSET	-291.4	-30.8	15.2
								CHANNELS 3  Xrotation Yrotation Zrotation
								JOINT left_lowarm_twist
								{
									OFFSET	-110.7	-3.89999	13.6
									CHANNELS 3  Xrotation Yrotation Zrotation
									JOINT left_hand
									{
										OFFSET	-110.7	-3.89999	13.6
										CHANNELS 3  Xrotation Yrotation Zrotation
										JOINT left_ee
										{
											OFFSET	-80.8	-5.10001	12.1
											CHANNELS 3  Xrotation Yrotation Zrotation
											End Site
											{
												OFFSET	1	0	0
											}
										}
									}
								}
							}
						}
					}
					JOINT right_clavicle
					{
						OFFSET	43.2	22.4	-70.8
						CHANNELS 3  Xrotation Yrotation Zrotation
						JOINT right_shoulder
						{
							OFFSET	93.9	-5.79999	48.7
							CHANNELS 3  Xrotation Yrotation Zrotation
							JOINT right_elbow
							{
								OFFSET	291.4	-30.8	15.2
								CHANNELS 3  Xrotation Yrotation Zrotation
								JOINT right_lowarm_twist
								{
									OFFSET	110.7	-3.89999	13.6
									CHANNELS 3  Xrotation Yrotation Zrotation
									JOINT right_hand
									{
										OFFSET	110.7	-3.89999	13.6
										CHANNELS 3  Xrotation Yrotation Zrotation
										JOINT right_ee
										{
											OFFSET	80.8	-5.10001	12.1
											CHANNELS 3  Xrotation Yrotation Zrotation
											End Site
											{
												OFFSET	1	0	0
											}
										}
									}
								}
							}
						}
					}
				}
			}
		}
	}
	JOINT left_hip
	{
		OFFSET	-82.8	-127.5	0.300001
		CHANNELS 3  Xrotation Yrotation Zrotation
		JOINT left_knee
		{
			OFFSET	-28.2	-396.7	2.2
			CHANNELS 3  Xrotation Yrotation Zrotation
			JOINT left_ankle
			{
				OFFSET	-11.7	-411.3	35.4
				CHANNELS 3  Xrotation Yrotation Zrotation
				JOINT left_toes
				{
					OFFSET	0	-60	-88.6
					CHANNELS 3  Xrotation Yrotation Zrotation
					JOINT left_foot_ee
					{
						OFFSET	-22.5	-16.5	-42.2
						CHANNELS 3  Xrotation Yrotation Zrotation
						End Site
						{
							OFFSET	1	0	0
						}
					}
				}
			}
		}
	}
	JOINT right_hip
	{
		OFFSET	82.8	-127.5	0.300001
		CHANNELS 3  Xrotation Yrotation Zrotation
		JOINT right_knee
		{
			OFFSET	28.2	-396.7	2.2
			CHANNELS 3  Xrotation Yrotation Zrotation
			JOINT right_ankle
			{
				OFFSET	11.7	-411.3	35.4
				CHANNELS 3  Xrotation Yrotation Zrotation
				JOINT right_toes
				{
					OFFSET	0	-60	-88.6
					CHANNELS 3  Xrotation Yrotation Zrotation
					JOINT right_foot_ee
					{
						OFFSET	22.5	-16.5	-42.2
						CHANNELS 3  Xrotation Yrotation Zrotation
						End Site
						{
							OFFSET	1	0	0
						}
					}
				}
			}
		}
	}
}
MOTION
Frames: 13
Frame Time: 0.02
2573.78672803 760.621 -1527.29527449 32.6650212009 71.6875708006 -28.1436243741 -2.41623 -0.0602913 -1.76871 -2.41449 0.0523603 -1.76896 -2.41438 0.495153 -1.69907 -2.41834 0.220646 -1.75593 -10.3671 11.0975 7.79276 -10.2917 15.7231 10.3754 -0.0 0.0 -0.0 4.98688 18.27 9.74539 -17.2286 -20.3997 69.0206 0.1999 -5.6554 0.00987359 -59.6575 -5.24019 5.09039 1.94873 15.1302 18.615 -0.0 0.0 -0.0 3.13682 19.0536 -4.50988 5.81263 18.5931 -69.4128 1.60518 38.4874 -0.560388 64.7074 2.21046 7.52461 -3.86751 -28.45 9.85524 0.0 0.0 0.0 8.13637 22.3197 -18.074 -42.1024 -0.605909 6.29006 31.3102 17.4354 -4.10764 8.43589 -0.0 -0.0 -0.0 0.0 -0.0 13.5027 34.2102 -18.328 -16.7538 -0.320162 -2.54196 21.7207 -11.5621 2.95117 2.14119 -0.0 -0.0 0.0 0.0 0.0 
2572.04111359 760.621 -1519.2547642 36.2978121543 73.3536662816 -31.9517508548 -2.41623 -0.0602913 -1.76871 -2.41449 0.0523603 -1.76896 -2.41438 0.495153 -1.69907 -2.41834 0.220646 -1.75593 -10.3671 11.0975 7.79276 -10.2917 15.7231 10.3754 -0.0 0.0 -0.0 4.98688 18.27 9.74539 -17.2286 -20.3997 69.0206 0.1999 -5.6554 0.00987359 -59.6575 -5.24019 5.09039 1.94873 15.1302 18.615 -0.0 0.0 -0.0 3.13682 19.0536 -4.50988 5.81263 18.5931 -69.4128 1.60518 38.4874 -0.560388 64.7074 2.21046 7.52461 -3.86751 -28.45 9.85524 0.0 0.0 0.0 8.13637 22.3197 -18.074 -42.1024 -0.605909 6.29006 31.3102 17.4354 -4.10764 8.43589 -0.0 -0.0 -0.0 0.0 -0.0 13.5027 34.2102 -18.328 -16.7538 -0.320162 -2.54196 21.7207 -11.5621 2.95117 2.14119 -0.0 -0.0 0.0 0.0 0.0 
2562.38101071 763.453 -1510.12291119 40.299903086 75.2990024763 -35.9506836203 -2.26051 -0.0338267 -1.62778 -2.25904 0.0698076 -1.62663 -2.25965 0.472058 -1.55821 -2.26297 0.220077 -1.61319 -9.98668 11.1956 7.81003 -9.90292 15.8184 10.3699 -0.0 0.0 -0.0 4.65807 18.8679 9.22923 -18.3949 -19.9864 69.0802 0.186231 -5.27095 0.00857223 -59.462 -5.21592 5.08412 2.09327 15.3984 19.6552 -0.0 0.0 -0.0 3.29077 18.7264 -4.87131 7.62168 19.4307 -69.4475 1.87398 42.8667 -0.735719 65.0977 2.24817 7.55753 -3.72098 -28.2236 9.18935 0.0 0.0 0.0 10.7464 21.929 -19.7293 -38.4546 -0.371389 5.78072 28.435 17.1186 -3.78532 7.14175 -0.0 -0.0 -0.0 0.0 -0.0 11.6637 34.3327 -17.8171 -12.8196 -0.312076 -1.9385 22.1749 -11.2461 3.00515 1.67787 -0.0 -0.0 0.0 0.0 0.0 
2553.25140533 765.251 -1506.3069871 43.5822263242 75.7984719764 -39.1810759194 -2.18084 -0.0776147 -1.51632 -2.17956 0.0190185 -1.51818 -2.17883 0.393802 -1.46635 -2.1818 0.157304 -1.51013 -10.1132 11.6769 7.80446 -10.0432 16.7596 10.5024 -0.0 0.0 -0.0 4.0367 18.8838 8.28261 -20.1133 -19.4889 70.0117 0.200773 -5.67994 0.00995988 -58.5304 -5.10058 5.05308 2.32892 14.5426 20.9612 -0.0 0.0 -0.0 3.76179 18.028 -5.94592 9.06672 20.0574 -69.7781 2.19843 47.4343 -0.965925 64.8354 2.22281 7.53543 -3.30054 -25.7324 8.32817 0.0 0.0 0.0 12.7863 21.5097 -20.6974 -32.3496 -0.0530799 4.8989 17.3811 22.0487 -2.48199 5.39992 -0.0 -0.0 -0.0 0.0 -0.0 9.74539 34.9985 -17.4325 -11.6748 -0.301944 -1.76316 21.087 -6.91391 2.86455 0.731369 -0.0 -0.0 0.0 0.0 0.0 
2466.626899 769.656 -1510.53672682 17.1476109626 73.7461401469 -11.3752878381 -0.179572 -0.099393 -1.45522 -0.178394 -0.00660233 -1.45859 -0.177643 0.304593 -1.42646 -0.180475 0.0755133 -1.45665 -13.0633 15.2393 9.97907 -13.1223 22.8192 14.068 -0.0 0.0 -0.0 2.32322 20.6457 5.77636 -24.013 -18.1475 68.1748 0.47545 -13.2532 0.0552355 -57.6301 -4.98958 5.02131 3.53039 20.0805 30.7568 -0.0 0.0 -0.0 4.85975 9.80807 -8.90601 2.2287 18.4265 -68.9017 2.77745 53.9799 -1.41478 65.6421 2.30115 7.60302 -0.519889 -19.8642 -4.90863 0.0 0.0 0.0 4.51687 22.6938 -17.1614 -14.9209 0.321551 2.26076 17.1867 20.0125 -2.43502 5.06928 -0.0 -0.0 -0.0 0.0 -0.0 7.17512 31.4258 -16.9496 -7.61477 -0.237812 -1.14359 24.9513 -15.051 3.36088 -3.5818 0.0 0.0 0.0 0.0 0.0 
2462.25662858 768.363 -1518.38482007 13.6665303418 71.2809638636 -7.93914433584 -0.0430846 -0.157511 -1.4723 -0.0418808 -0.0635163 -1.47934 -0.0396416 0.249881 -1.45947 -0.0426138 0.0162756 -1.48061 -12.9444 15.2856 10.2447 -12.9774 22.7112 14.303 -0.0 0.0 -0.0 2.1256 20.3441 5.47299 -22.9447 -17.8608 68.698 0.51405 -14.2866 0.0644235 -57.676 -4.99523 5.02297 3.56684 19.9444 30.9866 -0.0 0.0 -0.0 5.18411 10.0022 -9.57098 1.46706 18.0056 -67.9547 2.52803 51.3835 -1.21636 65.6511 2.30203 7.60377 -0.466562 -19.6241 -5.13006 0.0 0.0 0.0 4.09106 22.8082 -16.9931 -14.8793 0.321478 2.25437 17.5523 20.2968 -2.486 5.22591 -0.0 -0.0 -0.0 0.0 -0.0 7.73033 31.4051 -16.9322 -7.77157 -0.241103 -1.16742 23.4768 -16.453 3.19729 -3.73629 0.0 0.0 0.0 0.0 0.0 
2462.10518441 768.363 -1517.21969494 13.805383249 71.4723905085 -8.08566930956 -0.0430846 -0.157511 -1.4723 -0.0418808 -0.0635163 -1.47934 -0.0396416 0.249881 -1.45947 -0.0426138 0.0162756 -1.48061 -12.9444 15.2856 10.2447 -12.9774 22.7112 14.303 -0.0 0.0 -0.0 2.1256 20.3441 5.47299 -22.9447 -17.8608 68.698 0.51405 -14.2866 0.0644235 -57.676 -4.99523 5.02297 3.56684 19.9444 30.9866 -0.0 0.0 -0.0 5.18411 10.0022 -9.57098 1.46706 18.0056 -67.9547 2.52803 51.3835 -1.21636 65.6511 2.30203 7.60377 -0.466562 -19.6241 -5.13006 0.0 0.0 0.0 4.09106 22.8082 -16.9931 -14.8793 0.321478 2.25437 17.5523 20.2968 -2.486 5.22591 -0.0 -0.0 -0.0 0.0 -0.0 7.73033 31.4051 -16.9322 -7.77157 -0.241103 -1.16742 23.4768 -16.453 3.19729 -3.73629 0.0 0.0 0.0 0.0 0.0 
2461.78959574 768.363 -1514.68346396 14.117753912 71.888394555 -8.41471450832 -0.0430846 -0.157511 -1.4723 -0.0418808 -0.0635163 -1.47934 -0.0396416 0.249881 -1.45947 -0.0426138 0.0162756 -1.48061 -12.9444 15.2856 10.2447 -12.9774 22.7112 14.303 -0.0 0.0 -0.0 2.1256 20.3441 5.47299 -22.9447 -17.8608 68.698 0.51405 -14.2866 0.0644235 -57.676 -4.99523 5.02297 3.56684 19.9444 30.9866 -0.0 0.0 -0.0 5.18411 10.0022 -9.57098 1.46706 18.0056 -67.9547 2.52803 51.3835 -1.21636 65.6511 2.30203 7.60377 -0.466562 -19.6241 -5.13006 0.0 0.0 0.0 4.09106 22.8082 -16.9931 -14.8793 0.321478 2.25437 17.5523 20.2968 -2.486 5.22591 -0.0 -0.0 -0.0 0.0 -0.0 7.73033 31.4051 -16.9322 -7.77157 -0.241103 -1.16742 23.4768 -16.453 3.19729 -3.73629 0.0 0.0 0.0 0.0 0.0 
2461.53141264 768.363 -1512.48329318 14.4005627503 72.2485010251 -8.71196061948 -0.0430846 -0.157511 -1.4723 -0.0418808 -0.0635163 -1.47934 -0.0396416 0.249881 -1.45947 -0.0426138 0.0162756 -1.48061 -12.9444 15.2856 10.2447 -12.9774 22.7112 14.303 -0.0 0.0 -0.0 2.1256 20.3441 5.47299 -22.9447 -17.8608 68.698 0.51405 -14.2866 0.0644235 -57.676 -4.99523 5.02297 3.56684 19.9444 30.9866 -0.0 0.0 -0.0 5.18411 10.0022 -9.57098 1.46706 18.0056 -67.9547 2.52803 51.3835 -1.21636 65.6511 2.30203 7.60377 -0.466562 -19.6241 -5.13006 0.0 0.0 0.0 4.09106 22.8082 -16.9931 -14.8793 0.321478 2.25437 17.5523 20.2968 -2.486 5.22591 -0.0 -0.0 -0.0 0.0 -0.0 7.73033 31.4051 -16.9322 -7.77157 -0.241103 -1.16742 23.4768 -16.453 3.19729 -3.73629 0.0 0.0 0.0 0.0 0.0 
2461.71893692 768.363 -1514.093425 14.1924889228 71.9850385779 -8.49332377869 -0.0430846 -0.157511 -1.4723 -0.0418808 -0.0635163 -1.47934 -0.0396416 0.249881 -1.45947 -0.0426138 0.0162756 -1.48061 -12.9444 15.2856 10.2447 -12.9774 22.7112 14.303 -0.0 0.0 -0.0 2.1256 20.3441 5.47299 -22.9447 -17.8608 68.698 0.51405 -14.2866 0.0644235 -57.676 -4.99523 5.02297 3.56684 19.9444 30.9866 -0.0 0.0 -0.0 5.18411 10.0022 -9.57098 1.46706 18.0056 -67.9547 2.52803 51.3835 -1.21636 65.6511 2.30203 7.60377 -0.466562 -19.6241 -5.13006 0.0 0.0 0.0 4.09106 22.8082 -16.9931 -14.8793 0.321478 2.25437 17.5523 20.2968 -2.486 5.22591 -0.0 -0.0 -0.0 0.0 -0.0 7.73033 31.4051 -16.9322 -7.77157 -0.241103 -1.16742 23.4768 -16.453 3.19729 -3.73629 0.0 0.0 0.0 0.0 0.0 
2461.61606991 768.363 -1513.21843109 14.304802257 72.1282602882 -8.61137904267 -0.0430846 -0.157511 -1.4723 -0.0418808 -0.0635163 -1.47934 -0.0396416 0.249881 -1.45947 -0.0426138 0.0162756 -1.48061 -12.9444 15.2856 10.2447 -12.9774 22.7112 14.303 -0.0 0.0 -0.0 2.1256 20.3441 5.47299 -22.9447 -17.8608 68.698 0.51405 -14.2866 0.0644235 -57.676 -4.99523 5.02297 3.56684 19.9444 30.9866 -0.0 0.0 -0.0 5.18411 10.0022 -9.57098 1.46706 18.0056 -67.9547 2.52803 51.3835 -1.21636 65.6511 2.30203 7.60377 -0.466562 -19.6241 -5.13006 0.0 0.0 0.0 4.09106 22.8082 -16.9931 -14.8793 0.321478 2.25437 17.5523 20.2968 -2.486 5.22591 -0.0 -0.0 -0.0 0.0 -0.0 7.73033 31.4051 -16.9322 -7.77157 -0.241103 -1.16742 23.4768 -16.453 3.19729 -3.73629 0.0 0.0 0.0 0.0 0.0 
2455.7537254 764.975 -1516.60135475 12.7559529626 70.8285572901 -6.70879710222 0.207958 -0.206655 -1.57064 0.209324 -0.106305 -1.58061 0.212877 0.222491 -1.56848 0.209445 -0.0279809 -1.58393 -13.9158 15.2331 10.5545 -13.9803 22.6678 14.7772 -0.0 0.0 -0.0 2.11832 19.9831 5.44333 -22.0833 -18.0826 68.146 0.545163 -15.1128 0.0723187 -57.9633 -5.0306 5.03327 3.51561 20.6247 30.7723 -0.0 0.0 -0.0 5.32285 10.9282 -9.80584 0.48987 18.0549 -67.9304 2.31667 48.9249 -1.05405 65.6557 2.30248 7.60415 -0.449081 -19.7375 -5.28027 0.0 0.0 0.0 4.14223 22.7671 -17.0112 -14.8115 0.321349 2.24397 17.0002 20.3765 -2.41385 5.06738 -0.0 -0.0 -0.0 0.0 -0.0 7.592 31.2126 -17.2603 -7.34413 -0.231978 -1.10246 25.2844 -16.4738 3.41365 -3.55377 0.0 0.0 0.0 0.0 0.0 
2455.29795182 764.975 -1512.75286365 13.1752360031 71.4506508125 -7.15186234825 0.207958 -0.206655 -1.57064 0.209324 -0.106305 -1.58061 0.212877 0.222491 -1.56848 0.209445 -0.0279809 -1.58393 -13.9158 15.2331 10.5545 -13.9803 22.6678 14.7772 -0.0 0.0 -0.0 2.11832 19.9831 5.44333 -22.0833 -18.0826 68.146 0.545163 -15.1128 0.0723187 -57.9633 -5.0306 5.03327 3.51561 20.6247 30.7723 -0.0 0.0 -0.0 5.32285 10.9282 -9.80584 0.48987 18.0549 -67.9304 2.31667 48.9249 -1.05405 65.6557 2.30248 7.60415 -0.449081 -19.7375 -5.28027 0.0 0.0 0.0 4.14223 22.7671 -17.0112 -14.8115 0.321349 2.24397 17.0002 20.3765 -2.41385 5.06738 -0.0 -0.0 -0.0 0.0 -0.0 7.592 31.2126 -17.2603 -7.34413 -0.231978 -1.10246 25.2844 -16.4738 3.41365 -3.55377 0.0 0.0 0.0 0.0 0.0 
